# xmcd
#
# Track frame offsets:
#	150
#	17710
#	31515
#	51637
#	67750
#	85140
#	98595
#	115735
#	132025
#	148047
#	163862
#	179242
#	196187
#	207557
#	218440
#
# Disc length: 3141 seconds
#
# Revision: 0
# Processed by: cddbd v1.4PL0 Copyright (c) Steve Scherf et al.
# Submitted via: dBpowerAMP V4.0
#
DISCID=ce0c430f
DTITLE=Various Artist - Real Country
DYEAR=1900
DGENRE=Country
TTITLE0=Dixie Chicks - I Can Love You Better
TTITLE1=Collin Raye - That's My Story
TTITLE2=Mary Chapin Carpenter - I Feel Lucky
TTITLE3=Patty Loveless - Blame It On Your Heart
TTITLE4=The Black Sorrows - Harley and Rose
TTITLE5=Charlie Daniels Band - Layla
TTITLE6=Joe Diffie - Honky Tonk Attitude
TTITLE7=The O'Kanes - Climbing Mountains
TTITLE8=The Kinleys - Just Between You And Me
TTITLE9=Rick Trevino - Learning As You Go
TTITLE10=Rosanne Cash - Rose In The Fire
TTITLE11=Tray Cassar-Daley - Ladies In My Life
TTITLE12=Wade Hayes - When The Wrong One Loves You Right
TTITLE13=Michael Murphy - Wild Bird
TTITLE14=Dr. Hook - Sylvia's Mother
EXTD=
EXTT0=
EXTT1=
EXTT2=
EXTT3=
EXTT4=
EXTT5=
EXTT6=
EXTT7=
EXTT8=
EXTT9=
EXTT10=
EXTT11=
EXTT12=
EXTT13=
EXTT14=
PLAYORDER=
